<?xml version="1.0" encoding="UTF-8"?>
<svg version="1.1" xmlns="http://www.w3.org/2000/svg" width="1536" height="1024">
<path d="M0 0 C506.88 0 1013.76 0 1536 0 C1536 337.92 1536 675.84 1536 1024 C1029.12 1024 522.24 1024 0 1024 C0 686.08 0 348.16 0 0 Z " fill="#FEFCF5" transform="translate(0,0)"/>
<path d="M0 0 C118.47 0 236.94 0 359 0 C359 58.08 359 116.16 359 176 C353.24973538 177.43756615 350.0298733 178.13868781 344.5 178.125 C339.59800422 178.44162256 337.1373936 179.08664759 333.6875 182.625 C332.44796894 184.07453426 331.21838189 185.53264442 330 187 C325.05640989 191.74317429 319.62559313 195.99324593 314.3125 200.3125 C313.34944946 201.10479004 313.34944946 201.10479004 312.36694336 201.91308594 C309.0442139 204.58854166 306.13115585 206.69667167 302 208 C300.83984375 206.82244141 300.83984375 206.82244141 299.65625 205.62109375 C294.64754623 200.56074554 289.6567706 195.58925419 284.20703125 191 C282.31249679 189.28318293 280.53822539 187.52368257 278.76171875 185.6875 C278.18349365 185.09251709 277.60526855 184.49753418 277.00952148 183.88452148 C275.85295672 182.68687436 274.70500928 181.48083405 273.56665039 180.26586914 C272.1184569 178.76859177 270.56406224 177.37579549 269 176 C267.68 176 266.36 176 265 176 C265.56050284 179.85501999 267.24097708 181.60360876 269.97265625 184.30078125 C270.79056641 185.11353516 271.60847656 185.92628906 272.45117188 186.76367188 C273.31291016 187.60478516 274.17464844 188.44589844 275.0625 189.3125 C275.89716797 190.14201172 276.73183594 190.97152344 277.59179688 191.82617188 C281.39975006 195.58663694 285.23911115 199.25367565 289.30859375 202.73046875 C292.61803991 205.56875374 295.31924414 208.56528156 298 212 C287.87832659 217.86551639 277.68189211 223.22691315 267 228 C266.0821875 227.07058594 265.164375 226.14117187 264.21875 225.18359375 C253.52994572 212.98196134 253.52994572 212.98196134 240 205 C241.26178152 209.83914012 242.79825906 212.1880238 246.625 215.375 C251.31104069 219.38869572 255.68704309 223.59190433 260 228 C260.66 228.66 261.32 229.32 262 230 C219.75618518 248.99910265 167.93151985 247.37653131 125 231.625 C98.85690147 221.62546447 76.21106733 207.35567767 56 188 C55.50113281 187.52836426 55.00226563 187.05672852 54.48828125 186.57080078 C46.49027226 178.98143043 39.54812734 170.86442027 33 162 C31.84371094 160.44345703 31.84371094 160.44345703 30.6640625 158.85546875 C0.81689734 117.22652786 -11.63381392 65.20094026 -3.62695312 14.64453125 C-1.63029234 3.26058468 -1.63029234 3.26058468 0 0 Z " fill="#E53B1F" transform="translate(1177,0)"/>
<path d="M0 0 C0 113.52 0 227.04 0 344 C-105.6 344 -211.2 344 -320 344 C-320 336.28294963 -319.9970671 329.90150412 -318.4375 322.5625 C-318.26186523 321.71905029 -318.08623047 320.87560059 -317.90527344 320.0065918 C-308.51529393 277.22694985 -283.39682832 239.55827982 -247.0390625 215 C-243.745598 212.90031055 -240.39954975 210.92074984 -237 209 C-236.25250488 208.5757373 -235.50500977 208.15147461 -234.73486328 207.71435547 C-208.44836108 192.96520185 -180.51989983 185.25878119 -150.875 180.375 C-128.31540475 176.65705706 -107.73455045 171.1419412 -90 156 C-89.32582031 155.42636719 -88.65164063 154.85273437 -87.95703125 154.26171875 C-75.34315317 142.59457766 -68.628591 124.78246322 -67 108 C-66.91399753 105.32975662 -66.86245176 102.68115224 -66.859375 100.01171875 C-66.55142887 66.61405897 -66.55142887 66.61405897 -61 53 C-60.71737305 52.30616211 -60.43474609 51.61232422 -60.14355469 50.89746094 C-55.87682466 40.84314045 -50.07281436 32.27893999 -43 24 C-42.42765625 23.32582031 -41.8553125 22.65164063 -41.265625 21.95703125 C-31.81781379 11.73749289 -14.37748011 0 0 0 Z " fill="#001F57" transform="translate(1536,680)"/>
<path d="M0 0 C11.12307165 8.48369872 19.74749576 19.71421087 22.71875 33.65625 C24.58025849 49.16882076 21.85751772 63.04446892 13 76 C11.30622592 78.01217935 9.61503703 79.92949585 7.80990601 81.83329773 C7.29288317 82.38554573 6.77586034 82.93779373 6.24317014 83.50677651 C-1.03042166 91.22440483 -8.53653054 98.7177936 -16.02099609 106.22973633 C-17.70462365 107.92292549 -19.38808551 109.61627943 -21.07139587 111.30978394 C-26.07913742 116.34593034 -31.09108683 121.37787236 -36.10454601 126.40832642 C-37.52416525 127.83276147 -38.943702 129.25727869 -40.36322451 130.68181014 C-49.2155439 139.56507522 -58.07002625 148.44618099 -66.92940331 157.32240772 C-68.96956727 159.3665197 -71.00970358 161.41065927 -73.04980469 163.45483398 C-73.55672268 163.96276034 -74.06364067 164.47068669 -74.58591981 164.99400475 C-82.80757157 173.23268488 -91.01708299 181.48335565 -99.22182254 189.73887483 C-107.67932104 198.24827965 -116.14823265 206.74619435 -124.62810385 215.23330516 C-129.37565545 219.98549739 -134.11776787 224.74284371 -138.84766769 229.5126133 C-143.29485721 233.99680484 -147.75622315 238.46639947 -152.22856331 242.92550278 C-153.85987458 244.55686775 -155.4861262 246.19331174 -157.1066761 247.8353672 C-171.99799219 262.91356147 -185.51434877 273.12872322 -207.4375 273.4375 C-222.78377548 273.34211476 -234.60812288 268.29231179 -245.8125 257.6875 C-256.47258814 246.41826397 -260.64254508 233.73487513 -260.47045898 218.4362793 C-259.53368013 191.98913879 -238.53327914 175.38510889 -221.13671875 157.9597168 C-219.45820434 156.27492384 -217.77987498 154.58994649 -216.10171509 152.90480042 C-211.10520469 147.88923203 -206.10453483 142.87782572 -201.10295534 137.86731288 C-199.21360228 135.97443756 -197.32456066 134.08125161 -195.43553334 132.18805122 C-187.08873725 123.82282401 -178.74060136 115.45893652 -170.38844299 107.09906292 C-168.35498094 105.06369161 -166.32152449 103.0283147 -164.28808594 100.99291992 C-163.78280613 100.48715637 -163.27752632 99.98139282 -162.756935 99.46030311 C-154.55863038 91.25368469 -146.36889317 83.03857142 -138.18265998 74.81991329 C-129.74971221 66.35383913 -121.30919968 57.89536665 -112.86126804 49.44424373 C-108.12932572 44.71014375 -103.40091191 39.97263806 -98.68051147 35.22702599 C-94.24376802 30.76696306 -89.79754982 26.3165663 -85.34400558 21.87328148 C-83.71642409 20.24619429 -82.09222944 18.61571067 -80.47179031 16.98151016 C-57.75787753 -5.91439689 -30.46384479 -18.9369846 0 0 Z " fill="#001F57" transform="translate(876,212)"/>
<path d="M0 0 C9.23473017 6.2347472 15.56842417 15.1250696 18.375 25.9375 C20.05485131 39.7925568 16.93573892 51.03102673 8.66551399 62.08902931 C4.96606722 66.68964111 0.87411116 70.82294557 -3.32641602 74.96362305 C-4.27254649 75.9072618 -5.21800141 76.8515783 -6.1628418 77.79650879 C-8.17781154 79.80880021 -10.1973837 81.81630441 -12.22088814 83.82001305 C-15.42766103 86.99541997 -18.62370767 90.18148528 -21.81858826 93.36885071 C-26.8757423 98.41158724 -31.94007037 103.44704857 -37.00747102 108.47948629 C-46.07927496 117.48915652 -55.13881412 126.51115152 -64.19554657 135.53596908 C-67.36680137 138.69547439 -70.54121072 141.8517647 -73.71839726 145.00530469 C-75.22047094 146.49681763 -76.72139518 147.98947648 -78.22186279 149.48260498 C-80.0416359 151.29327628 -81.8632563 153.10209391 -83.68717957 154.90858459 C-90.61543322 161.81164491 -96.94520451 168.96359293 -102.91485119 176.70792675 C-113.37624621 190.26579733 -124.44935626 203.24650206 -135.9375 215.9375 C-136.42056248 216.47279469 -136.90362496 217.00808938 -137.4013257 217.55960512 C-162.42614322 245.21377381 -185.48207873 265.0444209 -223.91899371 267.06009531 C-234.40513141 267.52900054 -244.83866336 267.2197479 -255.3125 266.625 C-256.00297566 266.5867234 -256.69345132 266.54844681 -257.40485048 266.50901031 C-275.24863489 265.49957709 -292.95653074 263.6377211 -310.625 260.9375 C-305.57118842 254.83529507 -300.07983924 249.24353377 -294.47979736 243.64512634 C-293.45034093 242.61236526 -292.42109591 241.57939341 -291.39204288 240.54623038 C-288.57675896 237.72098778 -285.75838508 234.89884578 -282.93944931 232.0772475 C-279.89464639 229.02852354 -276.85267538 225.97697594 -273.81027222 222.92585754 C-266.47160473 215.56748265 -259.12813978 208.21390458 -251.78406727 200.86092481 C-248.3222814 197.39474914 -244.86098339 193.92808635 -241.39962006 190.46148872 C-229.88928243 178.93414925 -218.3776918 167.40806323 -206.86247635 155.88559628 C-203.87836019 152.89957038 -200.89424935 149.91353917 -197.91015625 146.92749023 C-197.16851867 146.18536891 -196.42688109 145.44324759 -195.66276965 144.67863775 C-183.64175565 132.64931854 -171.62928884 120.6115018 -159.62036291 108.57011621 C-147.28110222 96.19777591 -134.9343159 83.83298649 -122.58010173 71.47557741 C-115.64768695 64.54099906 -108.71859028 57.60317516 -101.79788971 50.65690422 C-95.90626383 44.74355959 -90.00783995 38.83710314 -84.10048679 32.93946808 C-81.08861156 29.93213323 -78.0800332 26.9216876 -75.08015823 23.90237808 C-72.33010456 21.13466292 -69.5708549 18.37646521 -66.80421528 15.62533242 C-65.80880619 14.63229476 -64.81671885 13.63591291 -63.82846537 12.63575386 C-46.27675725 -5.11411033 -22.82859424 -13.20508043 0 0 Z " fill="#001F57" transform="translate(352.625,763.0625)"/>
<path d="M0 0 C1.92233663 0.00254058 3.84468199 0.00110992 5.76701355 -0.00398254 C10.97168919 -0.0065601 16.17449008 0.04627158 21.37873077 0.10918307 C26.82253966 0.16552629 32.26639374 0.170738 37.71044922 0.18141174 C48.01310127 0.20936122 58.31489164 0.28318405 68.61716461 0.37355715 C80.34856479 0.47422816 92.08000659 0.52365659 103.81173134 0.56881607 C127.93887712 0.66283607 152.06484197 0.82785434 176.19140625 1.02172852 C176.19140625 23.46172852 176.19140625 45.90172852 176.19140625 69.02172852 C169.92140625 67.70172852 163.65140625 66.38172852 157.19140625 65.02172852 C152.97717617 64.7039095 149.11878195 64.48362574 144.94140625 64.58422852 C143.92836426 64.5981665 142.91532227 64.61210449 141.87158203 64.62646484 C111.91088344 65.35960166 89.78112115 79.12070492 69.50390625 99.77172852 C54.53900791 114.96886032 36.2539523 124.61555957 14.62890625 125.27172852 C-2.65902378 125.01402024 -19.37870501 118.11627853 -31.80859375 106.02172852 C-43.93640144 93.34860573 -49.37449211 77.19112542 -49.22607422 59.87329102 C-48.61589351 41.57554505 -40.064592 25.32678376 -28.19483948 11.72601986 C-26.72185925 9.99665556 -26.72185925 9.99665556 -25.4573822 7.77685642 C-19.09944126 -1.48557585 -10.11025469 -0.18680578 0 0 Z " fill="#FEFCF5" transform="translate(1359.80859375,-1.021728515625)"/>
<path d="M0 0 C8.1182668 5.77890889 15.23789016 13.86313159 17 24 C17.90799286 37.86435248 15.70428921 47.18896435 7 58 C5.29506612 59.93391917 3.57964587 61.84279335 1.82853699 63.73368835 C1.31200882 64.29177993 0.79548066 64.84987152 0.26330012 65.42487496 C-7.0714899 73.28745138 -14.71178065 80.85137289 -22.3190918 88.44848633 C-24.0337094 90.16446177 -25.74811481 91.88064925 -27.46232605 93.59703064 C-31.6020148 97.74077655 -35.74400317 101.88221262 -39.8871794 106.02247135 C-43.25209506 109.3851165 -46.61601868 112.74875116 -49.97925758 116.11307335 C-50.46025584 116.59422484 -50.94125409 117.07537632 -51.43682805 117.57110816 C-52.41420413 118.54880399 -53.39157798 119.52650206 -54.36894963 120.50420233 C-63.49247225 129.63056389 -72.61903585 138.75387941 -81.74667314 147.87612548 C-89.58115169 155.70612021 -97.41298079 163.53875699 -105.24291992 171.37329102 C-114.35408015 180.48979554 -123.46685048 189.60468559 -132.58222133 198.71698016 C-133.55238826 199.68682855 -134.5225531 200.65667902 -135.49271584 201.6265316 C-135.96999046 202.10365195 -136.44726508 202.58077229 -136.93900257 203.07235083 C-140.30591308 206.43839704 -143.67166013 209.80560392 -147.03696251 213.17325783 C-151.55313849 217.69252058 -156.07194108 222.20914595 -160.59256172 226.72396278 C-162.25557303 228.38564555 -163.91772234 230.0481915 -165.57897186 231.71163559 C-167.83528313 233.97065412 -170.09461072 236.22661032 -172.3547821 238.48176575 C-173.35367219 239.48400192 -173.35367219 239.48400192 -174.37274188 240.50648528 C-178.88584876 245 -178.88584876 245 -180 245 C-188.74832478 210.61072846 -197.29327139 164.62355928 -178.7765255 131.83342648 C-162.8726647 106.04418617 -139.22287555 84.70735995 -117.3125 64.125 C-116.56637372 63.42210641 -115.82024745 62.71921283 -115.05151129 61.99501944 C-99.06486397 46.94365487 -82.80483874 32.20947698 -66.1340332 17.91845703 C-65.55404221 17.41896479 -64.97405123 16.91947254 -64.37648475 16.40484416 C-46.27783237 0.86318518 -23.85280461 -15.04453112 0 0 Z " fill="#001F56" transform="translate(180,763)"/>
<path d="M0 0 C6.76957787 4.84054772 12.86042058 11.99663026 14.3125 20.375 C15.30523622 31.39548751 15.16348463 41.75192437 8.11747622 50.9319613 C6.72336829 52.60082011 5.30047909 54.23925098 3.8621521 55.87014771 C3.33345406 56.4778699 2.80475602 57.0855921 2.26003683 57.71173012 C1.15640065 58.97976352 0.05071896 60.24601935 -1.05694628 61.51053476 C-2.58899674 63.26236592 -4.11209561 65.02142287 -5.63123703 66.78445053 C-24.57743903 88.76139504 -44.10635879 110.18735225 -64.0625 131.25 C-64.80627175 132.0365651 -65.55004351 132.82313021 -66.3163538 133.63353062 C-133.36591223 204.44586763 -133.36591223 204.44586763 -175.51748657 206.71585083 C-196.82110805 207.19388575 -218.34705874 203.54916112 -238.6875 197.375 C-234.31274414 192.14584368 -229.71615889 187.2552313 -224.89605713 182.43638611 C-224.13027839 181.66693069 -223.36449966 180.89747526 -222.57551551 180.10470301 C-220.02178698 177.54000563 -217.46453427 174.97885277 -214.90722656 172.41772461 C-213.0701892 170.5744177 -211.23334099 168.73092226 -209.39666748 166.88725281 C-203.89708206 161.36799008 -198.39272689 155.8534963 -192.88775218 150.33960971 C-190.29066822 147.73813166 -187.6940695 145.13616936 -185.09740448 142.53427315 C-176.4590997 133.87897078 -167.81954393 125.22492 -159.1763649 116.57448483 C-156.9382051 114.33441541 -154.70005069 112.09434061 -152.46191406 109.85424805 C-151.9056946 109.29754484 -151.34947514 108.74084164 -150.77640054 108.16726864 C-141.76231676 99.14488088 -132.75678897 90.11400336 -123.7547982 81.07955151 C-114.4982239 71.78987216 -105.23410384 62.50777221 -95.96255851 53.23303419 C-90.76276921 48.03108385 -85.56629289 42.82591735 -80.37824249 37.612257 C-75.49870879 32.70869036 -70.60898606 27.81548943 -65.7122879 22.9290638 C-63.9198096 21.13708072 -62.13073284 19.3416875 -60.34538269 17.54260254 C-57.90173585 15.081216 -55.44596145 12.63258057 -52.98687744 10.18663025 C-52.28860029 9.47738386 -51.59032315 8.76813746 -50.87088609 8.03739876 C-36.70326346 -5.94906919 -17.72844589 -10.76263157 0 0 Z " fill="#E53C20" transform="translate(501.6875,826.625)"/>
<path d="M0 0 C0.92844727 0.00757324 1.85689453 0.01514648 2.81347656 0.02294922 C16.50027143 0.35179715 27.28352489 6.16711487 36.76171875 15.94921875 C45.85457807 27.69800453 47.81371418 39.99618133 46.6875 54.4375 C42.76662841 73.84021312 23.83532792 88.45052772 10.46484375 101.828125 C9.02796987 103.26821967 7.59116801 104.70838619 6.1544342 106.14862061 C3.17022518 109.13876543 0.18401007 112.12688981 -2.8034668 115.11376953 C-6.63861933 118.94881937 -10.46678215 122.79076858 -14.29332829 126.63440323 C-17.24520025 129.59734869 -20.20156017 132.55578375 -23.15923882 135.51293182 C-24.5742995 136.92917448 -25.9877345 138.34704337 -27.39952278 139.76654816 C-29.35940421 141.7361589 -31.32543627 143.6994144 -33.29321289 145.66113281 C-33.87653885 146.25007828 -34.45986481 146.83902374 -35.06086731 147.44581604 C-39.08416714 151.4375 -39.08416714 151.4375 -41.3125 151.4375 C-41.55742188 152.00855469 -41.80234375 152.57960938 -42.0546875 153.16796875 C-43.53104522 155.83183159 -45.26395747 157.61811072 -47.4375 159.75 C-48.16195312 160.46800781 -48.88640625 161.18601562 -49.6328125 161.92578125 C-51.62659454 163.79458861 -53.63427991 165.56275584 -55.71484375 167.328125 C-62.40310969 173.1419284 -68.52083229 179.57950574 -74.75 185.875 C-77.28752922 188.43903083 -79.82830167 190.99978341 -82.37109375 193.55859375 C-83.2444059 194.44435341 -83.2444059 194.44435341 -84.13536072 195.3480072 C-85.50896066 196.7300931 -86.908092 198.08673119 -88.3125 199.4375 C-88.6425 199.4375 -88.9725 199.4375 -89.3125 199.4375 C-91.14784115 179.21090008 -92.38176108 158.98380993 -93.0625 138.6875 C-93.08782948 137.94573297 -93.11315896 137.20396593 -93.139256 136.43972111 C-95.34604721 69.53770943 -95.34604721 69.53770943 -72.43527222 44.3560791 C-68.5007135 40.25702015 -64.32803401 36.4896835 -60 32.8125 C-59.30490829 32.21969742 -58.60981659 31.62689484 -57.8936615 31.01612854 C-48.84303993 23.39263159 -39.33573558 16.70573961 -29.3125 10.4375 C-27.26748012 9.11758347 -25.22255039 7.79752726 -23.17773438 6.47729492 C-15.41120968 1.48406013 -9.22358002 -0.10507876 0 0 Z " fill="#E53C1F" transform="translate(89.3125,376.5625)"/>
<path d="M0 0 C8.16832302 5.15814472 13.7454055 11.59775632 16.56640625 20.91796875 C18.59056023 29.91744473 16.76459381 38.47052559 11.89245415 46.28348446 C8.28642497 51.73127862 4.45006872 56.90226228 0.33251953 61.97290039 C-0.32563909 62.7835259 -0.9837977 63.5941514 -1.66190052 64.42934132 C-10.36450244 75.04680806 -19.45915656 85.30441922 -28.765625 95.39453125 C-29.43690327 96.12496163 -29.43690327 96.12496163 -30.12174273 96.87014818 C-51.98197974 120.61353383 -72.49080032 140.11192301 -106.10302734 141.99635887 C-128.07760967 142.79070686 -150.29198303 140.24102822 -171.890625 136.33203125 C-171.395625 135.34203125 -171.395625 135.34203125 -170.890625 134.33203125 C-170.230625 134.33203125 -169.570625 134.33203125 -168.890625 134.33203125 C-168.890625 133.67203125 -168.890625 133.01203125 -168.890625 132.33203125 C-168.230625 132.33203125 -167.570625 132.33203125 -166.890625 132.33203125 C-166.890625 131.67203125 -166.890625 131.01203125 -166.890625 130.33203125 C-165.38671875 128.88671875 -165.38671875 128.88671875 -163.328125 127.20703125 C-159.73280154 124.15799368 -156.64947582 120.93690989 -153.62890625 117.32421875 C-151.49187421 114.87503596 -149.19592655 112.62397648 -146.890625 110.33203125 C-146.00246094 109.44386719 -145.11429688 108.55570313 -144.19921875 107.640625 C-137.09635417 100.53776042 -129.99348958 93.43489583 -122.890625 86.33203125 C-122.00246094 85.43355469 -121.11429688 84.53507813 -120.19921875 83.609375 C-117.88156743 81.32309629 -115.43091589 79.36426396 -112.890625 77.33203125 C-111.21040221 75.67903188 -109.54641541 74.00950366 -107.890625 72.33203125 C-107.38729959 71.82335007 -106.88397419 71.31466888 -106.3653965 70.79057312 C-104.6249457 69.03150632 -102.88628647 67.27068002 -101.14770508 65.50976562 C-94.44568179 58.72589645 -87.73081353 51.95488878 -81.00864124 45.19098663 C-76.94916709 41.10541181 -72.89450143 37.01528991 -68.8503418 32.91455078 C-64.92636654 28.93605141 -60.99012404 24.97007083 -57.04526329 21.01228333 C-55.55024625 19.50807498 -54.05961378 17.99949486 -52.57361794 16.4863739 C-38.48114068 2.14685467 -20.73467097 -10.11708945 0 0 Z " fill="#001F56" transform="translate(988.890625,887.66796875)"/>
<path d="M0 0 C10.46845459 7.85134094 17.00596181 17.34805776 20.84375 29.8671875 C22.86547812 44.01928434 20.77734048 57.18223017 12.46889496 69.05529213 C6.55915311 76.93266182 -0.53396556 83.89258941 -7.49414062 90.83447266 C-8.75191315 92.09487366 -8.75191315 92.09487366 -10.03509521 93.3807373 C-12.77090937 96.12090656 -15.51030936 98.85745698 -18.25 101.59375 C-20.16325418 103.50722744 -22.07590938 105.42130331 -23.98864746 107.33529663 C-27.97761815 111.32607602 -31.9686697 115.31476523 -35.9609375 119.30224609 C-40.57945297 123.91528774 -45.19430979 128.53196606 -49.80734873 133.15048373 C-53.77934964 137.12701294 -57.7532835 141.10160259 -61.72886038 145.07455671 C-64.09903083 147.44316713 -66.46851773 149.81245074 -68.83625793 152.18349075 C-71.46460711 154.81436195 -74.09610971 157.44203645 -76.72851562 160.06884766 C-77.51494446 160.85730072 -78.30137329 161.64575378 -79.1116333 162.45809937 C-79.82361877 163.16726501 -80.53560425 163.87643066 -81.26916504 164.60708618 C-81.89074745 165.22829157 -82.51232986 165.84949696 -83.15274811 166.48952675 C-84.59375 167.8046875 -84.59375 167.8046875 -85.59375 167.8046875 C-86.18165715 149.85402152 -86.62044025 131.90589939 -86.8890543 113.94764042 C-87.01718396 105.60591692 -87.19128648 97.27022074 -87.47973633 88.93237305 C-87.73148892 81.65171991 -87.89077352 74.37543133 -87.94596237 67.09054655 C-87.97817187 63.2417078 -88.05184407 59.40533312 -88.23700142 55.56056404 C-88.90510385 41.11796408 -88.79818468 28.89551267 -78.70173663 17.66606206 C-57.56127273 -4.49565672 -28.58943492 -18.65739097 0 0 Z " fill="#001F56" transform="translate(85.59375,610.1953125)"/>
<path d="M0 0 C0 35.64 0 71.28 0 108 C-7.4636069 109.86590173 -13.31791405 110.34849621 -20.875 110.3125 C-22.07157227 110.30831055 -23.26814453 110.30412109 -24.50097656 110.29980469 C-34.27511898 110.17628097 -43.48443407 109.16858628 -53 107 C-54.21816406 106.74476563 -55.43632813 106.48953125 -56.69140625 106.2265625 C-87.45975379 98.99085617 -116.56330878 80.01188499 -137 56 C-138.3828125 53.59765625 -138.3828125 53.59765625 -139 52 C-137.90042969 51.45472656 -136.80085938 50.90945312 -135.66796875 50.34765625 C-123.86396913 44.38072574 -114.53251277 37.6485336 -105.25219727 28.17016602 C-89.12455271 11.70688643 -71.84880771 0.48363522 -49 -4 C-48.09121094 -4.19078125 -47.18242188 -4.3815625 -46.24609375 -4.578125 C-31.62610547 -6.47819568 -13.53545669 -6.76772834 0 0 Z " fill="#001F57" transform="translate(1536,68)"/>
<path d="M0 0 C0 47.19 0 94.38 0 143 C-24.45042968 143 -42.67218049 138.15354546 -60 121 C-70.82143572 108.82588481 -78.13633369 93.38425794 -79 77 C-79.06445312 75.97261719 -79.12890625 74.94523438 -79.1953125 73.88671875 C-79.80371732 55.9793368 -73.82382182 37.81498414 -61.625 24.5 C-43.85460088 6.08623194 -25.63351477 0 0 0 Z " fill="#FCCA75" transform="translate(1536,484)"/>
<path d="M0 0 C0 29.37 0 58.74 0 89 C-60.06 89 -120.12 89 -182 89 C-173.19376475 71.3875295 -162.18608207 60.37236835 -144 53 C-134.46433513 49.83960821 -124.94740431 48.95688495 -114.96679688 48.70996094 C-90.60287099 48.09053909 -67.99477786 43.73416093 -46 33 C-45.35401855 32.68659668 -44.70803711 32.37319336 -44.04248047 32.05029297 C-28.85497453 24.57996934 -15.12748652 14.16546496 -3.18359375 2.171875 C-1 0 -1 0 0 0 Z " fill="#FEFBF5" transform="translate(1536,935)"/>
<path d="M0 0 C3.76146709 2.04427559 4.77879397 3.25342966 6 7.375 C6 13.80122821 2.24359387 18.2094465 -1.4375 23.25 C-9.68682761 34.89269159 -13.34718199 47.70963911 -12 62 C-10.22797861 72.08036122 -6.87216613 79.70763524 -1 88 C8.32055351 102.23542971 12.32096239 116.47867316 8.9375 133.4375 C6.28447687 143.70408253 1.04526378 152.55747418 -4.75 161.3125 C-10.96614133 170.7717893 -13.31967098 178.56285154 -12 190 C-10.00166905 198.92184122 -6.10061143 205.71306763 -0.67236328 212.87719727 C3.31394929 218.19953218 5.88060564 223.68809191 8 230 C8.24363281 230.69351563 8.48726562 231.38703125 8.73828125 232.1015625 C12.81719618 245.58695472 9.24970649 260.89805179 2.8125 273 C0.81714041 276.30266415 -1.37514849 279.43179084 -3.625 282.5625 C-10.96562945 292.84698809 -13.53855445 302.21918954 -11.5625 314.78125 C-9.4298744 324.05817135 -4.31055612 331.75468553 1.125 339.4375 C7.33391967 348.85102337 9.44209497 357.0445183 9.5 368.1875 C9.50628418 369.10168701 9.51256836 370.01587402 9.51904297 370.95776367 C9.34121768 380.54047513 6.6171661 388.61445058 2 396.9375 C1.65710937 397.58267578 1.31421875 398.22785156 0.9609375 398.89257812 C-2.34129676 404.97398283 -2.34129676 404.97398283 -5 407 C-8.86893627 408.00305755 -11.09525961 408.3820015 -14.8125 406.8125 C-17.97135421 404.19516365 -18.84235522 402.43371536 -19.2890625 398.37109375 C-18.90550826 393.89802206 -17.17994471 390.77688957 -15.0625 386.875 C-14.32066104 385.47844652 -13.58225714 384.0800618 -12.84765625 382.6796875 C-12.51773682 382.06851074 -12.18781738 381.45733398 -11.84790039 380.82763672 C-8.49004247 373.58982377 -8.98399361 364.1477632 -11.3125 356.6875 C-13.65865259 350.89807312 -17.30747613 346.04095296 -20.91894531 340.9909668 C-24.93342449 335.30965313 -27.79979116 329.62062841 -30 323 C-30.36351562 321.99839844 -30.36351562 321.99839844 -30.734375 320.9765625 C-34.84634808 307.80713521 -31.69140971 292.8501285 -25.75 280.8125 C-23.05109906 275.66575867 -20.00116356 270.99470774 -16.57421875 266.3125 C-10.6862101 257.66311757 -8.93156148 248.33652147 -10 238 C-12.13286701 230.18613207 -16.1576262 224.1557963 -21.0078125 217.77734375 C-30.54369798 204.48319752 -33.97711461 189.25201142 -31.56640625 173.09375 C-29.02941616 162.37851235 -23.30528134 152.81499234 -17.25 143.75 C-11.14492757 134.51431651 -8.75528305 126.11561186 -10 115 C-11.58015575 107.58380235 -15.2813053 101.89315114 -19.63916016 95.82739258 C-29.83215028 81.54077289 -33.89951917 63.39494029 -32 46 C-29.14771818 29.10571537 -20.71977317 15.04125271 -10 2 C-6.2626144 -0.4915904 -4.42668417 -0.45793285 0 0 Z " fill="#021E54" transform="translate(1197,298)"/>
<path d="M0 0 C3.79599962 2.91497965 7.00563136 6.27406466 10.3125 9.72265625 C17.05978122 16.34984023 23.99012168 20.08204158 33.4765625 20.46875 C45.71127102 20.19686759 53.58882917 13.847875 62.2265625 5.75 C67.66663892 0.64992835 72.78092688 -3.11679311 79.7265625 -5.90625 C81.07621094 -6.45345703 81.07621094 -6.45345703 82.453125 -7.01171875 C93.25852155 -9.96450611 106.79165428 -9.00328987 116.7265625 -3.90625 C122.8508701 -0.22487951 127.89927832 4.1531903 132.8515625 9.28125 C139.25845539 15.91258819 146.01111798 20.11721344 155.3515625 20.40625 C168.08146745 20.20122957 177.27164301 11.69842492 186.7265625 4.09375 C186.98889875 8.13417673 187.14806741 12.17241481 187.2890625 16.21875 C187.36447266 17.36085938 187.43988281 18.50296875 187.51757812 19.6796875 C187.73458373 27.97412405 187.73458373 27.97412405 184.86987305 31.15600586 C182.55143744 32.73483856 180.28739138 33.95584352 177.7265625 35.09375 C176.76105469 35.56425781 175.79554688 36.03476562 174.80078125 36.51953125 C174.01316406 36.81214844 173.22554687 37.10476563 172.4140625 37.40625 C171.61355469 37.71175781 170.81304688 38.01726562 169.98828125 38.33203125 C160.12426535 41.65410914 147.85941134 41.57399223 138.26953125 37.41015625 C129.95549458 33.10626937 123.67847454 28.238046 117.21875 21.46875 C109.7483143 14.3495887 102.30861223 11.62319785 92.1328125 11.76953125 C83.17595058 12.62207659 77.47496522 17.9567478 71.19165039 23.92724609 C59.02265457 35.48828083 46.83008329 40.666061 30.125 40.3671875 C15.68679737 39.74105677 4.79017417 31.5042213 -4.8671875 21.46484375 C-10.30802104 16.10350291 -16.48670966 11.77296614 -24.2734375 11.09375 C-29.41508246 11.13059392 -29.41508246 11.13059392 -34.55102539 11.34228516 C-38.21847623 11.47290061 -40.07838098 11.21927369 -43.19921875 9.2109375 C-45.71066941 6.64746055 -46.22726138 5.80178382 -46.4609375 2.21875 C-46.27666044 -0.85253429 -45.9792418 -2.39243314 -44.2734375 -4.90625 C-31.73270215 -13.26674024 -11.3942134 -7.57474468 0 0 Z " fill="#011D54" transform="translate(1349.2734375,353.90625)"/>
<path d="M0 0 C1.29808594 -0.04898438 2.59617187 -0.09796875 3.93359375 -0.1484375 C8.42726898 0.49973525 9.81763058 1.83624585 12.5625 5.375 C13.3644119 9.22417713 12.89870914 10.79309956 10.9375 14.1875 C7.18234523 17.59834258 2.01323225 16.88621627 -2.76953125 16.84375 C-11.06128092 18.04468499 -16.05698246 23.73498302 -21.3125 29.8125 C-28.92573228 38.27720549 -36.59947076 44.62182574 -48.37109375 45.625 C-61.75984188 46.12964068 -70.09711369 41.41935804 -80.4375 33.375 C-85.72007152 29.52814812 -89.63102517 27.92339414 -96.30761719 28.03564453 C-103.59803861 29.19723162 -108.85781354 35.59476789 -113.4375 40.875 C-121.19195125 49.81563443 -129.32577421 55.36258602 -141.3203125 56.6953125 C-152.96409414 57.15133528 -161.66939577 53.46416657 -170.75390625 46.41015625 C-179.16864939 40.02866982 -185.7853911 36.2749783 -196.4375 37.375 C-204.86941362 39.39919548 -209.73742629 45.7132895 -215.24951172 51.91308594 C-219.7647653 56.90369436 -223.96196499 60.23586456 -230.4375 62.375 C-231.675 62.808125 -232.9125 63.24125 -234.1875 63.6875 C-238.96618255 64.69837515 -241.9281295 65.19531005 -246.3125 62.8125 C-248.4375 60.375 -248.4375 60.375 -249.0625 56.9375 C-248.26059472 52.36663988 -247.20422453 51.06551752 -243.4375 48.375 C-241.22831663 47.74148418 -239.09475086 47.32487355 -236.81640625 47.02734375 C-230.57586826 45.31606322 -226.73177246 40.70853933 -222.6875 36 C-215.15652187 27.56708725 -206.35002797 21.48053563 -194.88671875 20.05859375 C-182.83668267 19.51799879 -173.41777729 23.66222958 -164.19140625 31.15625 C-157.06449681 36.89821391 -151.38158112 39.50101376 -142.29296875 39.8359375 C-133.33295525 38.38958785 -128.33611764 33.70254643 -122.625 27 C-114.74560189 18.29350808 -108.14420543 12.42551333 -96.00537109 11.78466797 C-81.75018307 11.5655473 -73.24168115 18.29467586 -62.10400391 26.31518555 C-57.58635898 29.18818534 -52.57645405 28.94926707 -47.4375 28.375 C-38.78595082 26.33426913 -33.71977002 19.59976533 -28.06054688 13.26733398 C-20.02013436 4.42635649 -12.03638074 0.31015451 0 0 Z " fill="#021D53" transform="translate(1300.4375,819.625)"/>
<path d="M0 0 C6.3803703 3.4745815 10.8102559 8.02810934 13.390625 14.84765625 C15.207992 21.39017743 14.06138253 26.59006147 11.41796875 32.6953125 C8.14547532 38.30139457 3.16594681 42.12663324 -2.984375 44.09765625 C-10.97841811 45.18727681 -17.18198601 44.48736463 -23.88671875 39.88671875 C-28.61971493 35.85001065 -31.69556642 31.34468984 -32.2578125 25.0234375 C-32.47420326 17.32492011 -32.33531204 11.89919851 -26.984375 6.09765625 C-19.50478273 -1.7107093 -9.94970464 -4.21099704 0 0 Z " fill="#FCCA73" transform="translate(195.984375,515.90234375)"/>
<path d="M0 0 C33 0 66 0 100 0 C100 4.62 100 9.24 100 14 C67 14 34 14 0 14 C0 9.38 0 4.76 0 0 Z " fill="#00215A" transform="translate(454,756)"/>
<path d="M0 0 C28.38 0 56.76 0 86 0 C86 4.62 86 9.24 86 14 C57.62 14 29.24 14 0 14 C0 9.38 0 4.76 0 0 Z " fill="#00205A" transform="translate(280,137)"/>
<path d="M0 0 C4.98561526 2.59933787 8.24313469 5.94815406 10.015625 11.265625 C10.57993364 16.96297189 10.30148878 21.39348216 7.015625 26.265625 C2.86981121 30.19323807 -0.73636417 32.06126038 -6.421875 32.578125 C-11.96312411 32.09205052 -15.43427706 30.10250959 -19.296875 26.203125 C-22.72921919 21.91043068 -23.46817139 17.68074946 -22.984375 12.265625 C-21.74780728 7.37052245 -19.38966906 4.18787996 -15.296875 1.265625 C-10.28656848 -1.48166203 -5.3967707 -1.9972301 0 0 Z " fill="#FCC972" transform="translate(113.984375,268.734375)"/>
<path d="M0 0 C4.1796989 2.8497947 7.11864324 5.98092971 8.75 10.875 C9.33717652 16.86420055 8.05567074 20.96981116 4.75 25.875 C0.47694512 29.93961318 -3.10478031 31.31352574 -9.05859375 31.21484375 C-13.80026096 30.47950499 -17.5393072 27.85479054 -20.640625 24.265625 C-22.95812469 20.70777336 -23.9382207 17.17012626 -23.69921875 12.92578125 C-22.54394318 7.65169711 -19.41260999 3.93191817 -15.5 0.375 C-10.12850979 -2.10414933 -5.54620446 -1.91984 0 0 Z " fill="#FCC972" transform="translate(1002.25,45.125)"/>
<path d="M0 0 C16.5 0 33 0 50 0 C50 4.62 50 9.24 50 14 C33.5 14 17 14 0 14 C0 9.38 0 4.76 0 0 Z " fill="#00215A" transform="translate(580,756)"/>
<path d="M0 0 C16.5 0 33 0 50 0 C50 4.62 50 9.24 50 14 C33.5 14 17 14 0 14 C0 9.38 0 4.76 0 0 Z " fill="#00205A" transform="translate(391,137)"/>
<path d="M0 0 C4.30433568 2.11033304 6.57527636 4.85643963 8.46484375 9.23828125 C9.87324885 14.33448393 8.72621996 18.12299771 6.30859375 22.69921875 C3.46558399 26.09503597 1.41671779 28.07745658 -3.0859375 28.66796875 C-9.28915508 28.91486298 -12.53974956 27.52152469 -17.19140625 23.38671875 C-20.33958135 19.78880435 -20.22265598 16.15406125 -20.15625 11.6015625 C-19.72531546 7.15901918 -17.62970671 4.99108013 -14.37890625 2.13671875 C-9.84973525 -1.11499377 -5.33113582 -1.68408114 0 0 Z " fill="#E4391D" transform="translate(1134.94140625,915.61328125)"/>
<path d="M0 0 C3.5 0.875 3.5 0.875 5.5 2.5 C6.91399465 5.8582373 6.56486705 8.48440619 5.5 11.875 C3.62546551 15.30727701 1.40215175 18.44974746 -0.875 21.625 C-1.76058594 22.89923828 -1.76058594 22.89923828 -2.6640625 24.19921875 C-7.98285682 31.78209443 -7.98285682 31.78209443 -10.5 33.875 C-14.43094707 34.37530235 -16.6005787 34.4746142 -19.9375 32.25 C-21.96428603 29.16928523 -21.83919582 27.52254349 -21.5 23.875 C-20.1706543 21.20605469 -20.1706543 21.20605469 -18.32421875 18.546875 C-17.66099609 17.58265625 -16.99777344 16.6184375 -16.31445312 15.625 C-15.61255859 14.635 -14.91066406 13.645 -14.1875 12.625 C-13.15206055 11.11679688 -13.15206055 11.11679688 -12.09570312 9.578125 C-5.30179425 -0.18934979 -5.30179425 -0.18934979 0 0 Z " fill="#E4361C" transform="translate(1139.5,154.125)"/>
<path d="M0 0 C2.70567626 1.82339052 4.53728718 3.07457436 6 6 C6.53118173 9.79415519 6.85089348 13.46331178 4.953125 16.890625 C2.05713015 20.39988934 0.26209167 21.87864503 -4.25 22.3125 C-8.70355765 21.9413702 -10.6333821 20.89685726 -14 18 C-16.10524212 14.3636727 -16.66330626 11.14566415 -16 7 C-11.63551099 0.29493328 -8.0845636 -1.81205736 0 0 Z " fill="#FCC870" transform="translate(651,825)"/>
<path d="M0 0 C28.38 0 56.76 0 86 0 C86 4.62 86 9.24 86 14 C57.62 14 29.24 14 0 14 C0 9.38 0 4.76 0 0 Z M1 2 C1 5.3 1 8.6 1 12 C28.39 12 55.78 12 84 12 C84 8.7 84 5.4 84 2 C56.61 2 29.22 2 1 2 Z " fill="#061346" transform="translate(280,137)"/>
<path d="M0 0 C33 0 66 0 100 0 C100 4.62 100 9.24 100 14 C67 14 34 14 0 14 C0 9.38 0 4.76 0 0 Z M2 2 C2 5.63 2 9.26 2 13 C34.01 13 66.02 13 99 13 C99 9.37 99 5.74 99 2 C66.99 2 34.98 2 2 2 Z " fill="#09153E" transform="translate(454,756)"/>
<path d="M0 0 C4.28576957 0.50332929 6.17576631 1.70052947 9.14453125 4.7890625 C9.90443359 5.56636719 10.66433594 6.34367188 11.44726562 7.14453125 C12.22779297 7.96308594 13.00832031 8.78164062 13.8125 9.625 C18.79532082 14.77906613 23.76128853 19.82144377 29.23120117 24.46264648 C31.96469258 26.83846365 34.4717118 29.40850459 37 32 C36.34 33.32 35.68 34.64 35 36 C31.08670547 35.45354896 29.41281015 33.70064387 26.75 30.875 C24.04425366 28.07293259 21.359602 25.37737373 18.375 22.875 C14.08867091 19.16719386 10.00194882 15.26009474 5.9375 11.3125 C5.2451123 10.65813965 4.55272461 10.0037793 3.83935547 9.32958984 C3.2001416 8.70133301 2.56092773 8.07307617 1.90234375 7.42578125 C1.31960693 6.86286377 0.73687012 6.29994629 0.13647461 5.7199707 C-1 4 -1 4 -0.68139648 1.78588867 C-0.45653564 1.19654541 -0.2316748 0.60720215 0 0 Z " fill="#FCD57E" transform="translate(1442,175)"/>
<path d="M0 0 C2.69990662 1.79993774 4.5418865 3.083773 6 6 C6.40820726 9.67386532 6.24841035 11.55286137 4.4375 14.8125 C1.24450523 17.67800813 -0.74119188 18 -5 18 C-7.88017082 16.78392788 -9.45238499 15.69696456 -11.375 13.25 C-12.32835544 9.81792041 -11.91654656 7.42177384 -11 4 C-7.62243132 0.23642347 -5.00273693 -0.83378949 0 0 Z " fill="#071F53" transform="translate(818,501)"/>
<path d="M0 0 C2.89357127 2.59679473 3.86089908 4.16539447 4.5 8 C3.88466097 11.69203416 2.58383614 13.34016868 0 16 C-2.85324437 17.42662219 -4.83454549 17.31033868 -8 17 C-11.74785043 14.91786087 -12.79482295 13.7052961 -14 9.5625 C-14 5.5815106 -13.5177436 4.03865607 -11 1 C-7.44724114 -1.79145339 -4.20120319 -1.12532228 0 0 Z " fill="#061E52" transform="translate(820,544)"/>
<path d="M0 0 C3.74785043 2.08213913 4.79482295 3.2947039 6 7.4375 C6 11.4184894 5.5177436 12.96134393 3 16 C0.34500276 18.08606926 -1.06750504 17.99879455 -4.5 17.9375 C-8 17 -8 17 -10.4375 14.8125 C-12.30215998 11.45611204 -12.6303761 9.7822566 -12 6 C-8.54235344 0.81353016 -6.24330406 -0.61208863 0 0 Z " fill="#071F53" transform="translate(945,501)"/>
<path d="M0 0 C3 2.125 3 2.125 5 5 C5.06970901 8.97341331 4.61718966 11.1313627 2.3125 14.375 C-0.63237923 16.4443746 -2.38973663 17 -6 17 C-11.50649351 13.98701299 -11.50649351 13.98701299 -13 11 C-13.43023798 7.12785818 -13.31669086 5.47503629 -11.125 2.1875 C-7.38821379 -1.65919168 -5.14014211 -1.21969474 0 0 Z " fill="#052057" transform="translate(946,586)"/>
<path d="M0 0 C2.89357127 2.59679473 3.86089908 4.16539447 4.5 8 C3.86089908 11.83460553 2.89357127 13.40320527 0 16 C-3.91908586 17.14009771 -6.03158504 17.40888632 -9.8125 15.8125 C-12.16919618 13.85980888 -13.18326509 12.94024566 -14 10 C-13.68041237 3.92783505 -13.68041237 3.92783505 -11.625 1.125 C-7.69431138 -1.59624597 -4.46258448 -1.09607338 0 0 Z " fill="#061E52" transform="translate(820,586)"/>
<path d="M0 0 C2.69990662 1.79993774 4.5418865 3.083773 6 6 C6.52981019 9.97357645 6.31881474 11.54170381 4 14.875 C-0.14563015 17.81148802 -1.99328289 17.7152453 -7 17 C-10.33219018 14.86398066 -10.89315459 13.3672811 -12 9.5625 C-12 6 -12 6 -10.1875 3.125 C-6.80120612 -0.16454263 -4.68230115 -0.45904913 0 0 Z " fill="#041C51" transform="translate(818,627)"/>
<path d="M0 0 C3.74785043 2.08213913 4.79482295 3.2947039 6 7.4375 C6 11.37108373 5.41868244 12.95425175 3 16 C-0.22700757 17.61350378 -3.51099662 17.58705984 -7 17 C-10.44652326 14.55871269 -11.78056289 13.17033126 -12.5625 9 C-11.87642343 5.34092496 -10.57265686 3.64832324 -8 1 C-5.14675563 -0.42662219 -3.16545451 -0.31033868 0 0 Z " fill="#051D52" transform="translate(945,627)"/>
<path d="M0 0 C2.90398503 2.11912421 3.84245093 3.50634623 4.9375 6.9375 C5.01327396 10.65042412 4.3135507 12.12800603 2 15 C-0.65499724 17.08606926 -2.06750504 16.99879455 -5.5 16.9375 C-9 16 -9 16 -11.4375 13.8125 C-13.31263988 10.43724821 -13.71235686 8.7992366 -13 5 C-8.71885816 -0.06977323 -6.4992211 -1.68979749 0 0 Z " fill="#051D51" transform="translate(946,544)"/>
<path d="M0 0 C4.05990199 1.35330066 5.33761335 2.37620857 7.375 6.125 C8 9.625 8 9.625 7.375 13.125 C4.8125 16.125 4.8125 16.125 1.375 18.125 C-2.57919205 18.19317573 -4.74122522 17.6915223 -8.0625 15.5625 C-9.87432231 12.7360572 -10.31911736 10.46021284 -10.13671875 7.1015625 C-9.625 5.125 -9.625 5.125 -7.0625 2.0625 C-3.625 0.125 -3.625 0.125 0 0 Z " fill="#051D50" transform="translate(900.625,542.875)"/>
<path d="M0 0 C3.69879153 1.16443437 5.24663599 1.8273867 7.375 5.0625 C7.96863772 9.14375936 7.78759601 11.30332335 5.8125 14.9375 C2.55923621 17.77367869 0.67944539 18.21092915 -3.625 18.0625 C-6.91081158 16.21049711 -9.0853137 14.8626617 -10.20703125 11.12109375 C-10.55455099 6.86195652 -9.87214167 5.35786444 -7.0625 2 C-3.625 0.0625 -3.625 0.0625 0 0 Z " fill="#051D51" transform="translate(900.625,500.9375)"/>
<path d="M0 0 C3.73152858 1.17474048 5.26415485 1.76958156 7.375 5.0625 C8.18107605 9.10950038 8.05932164 12.03601754 5.75 15.5 C2.8090868 17.43481132 0.89849544 17.99059193 -2.625 18.0625 C-5.50372577 16.6885627 -7.37489437 15.31260563 -9.625 13.0625 C-10.02984936 9.97552361 -10.26359749 8.02378395 -9.625 5.0625 C-6.49597232 1.32293034 -4.91526448 0.08474594 0 0 Z " fill="#051D50" transform="translate(900.625,584.9375)"/>
<path d="M0 0 C2.89357127 2.59679473 3.86089908 4.16539447 4.5 8 C3.86089908 11.83460553 2.89357127 13.40320527 0 16 C-3.375 17.125 -3.375 17.125 -7 17 C-10.4375 15 -10.4375 15 -13 12 C-13.77152986 7.67943279 -13.52747866 5.80880061 -11.125 2.125 C-7.36988536 -1.63011464 -5.09635523 -1.23015471 0 0 Z " fill="#041C50" transform="translate(862,544)"/>
<path d="M0 0 C4.0318506 1.3439502 5.32041925 2.42675465 7.375 6.125 C8.0053761 9.9072566 7.67715998 11.58111204 5.8125 14.9375 C2.60503157 17.81599731 0.6600666 18.20017661 -3.625 18.125 C-6.42689446 16.35858828 -8.14024911 15.09450178 -9.625 12.125 C-10.0625 8.8125 -10.0625 8.8125 -9.625 5.125 C-6.49148819 1.45649837 -4.86447322 0.16774046 0 0 Z " fill="#051D51" transform="translate(858.625,500.875)"/>
<path d="M0 0 C2.4375 1.625 2.4375 1.625 4 4 C4.59172793 8.06812955 4.37276489 10.27000208 2.5 13.9375 C-0.36046904 16.29738696 -2.32366903 16.73661074 -6.02734375 16.48046875 C-9.55479057 15.62130844 -11.00100675 13.93602134 -13 11 C-13.5625 7.4375 -13.5625 7.4375 -13 4 C-8.98745153 -1.0825614 -6.2245005 -1.39514666 0 0 Z " fill="#031B50" transform="translate(904,628)"/>
<path d="M0 0 C4.0318506 1.3439502 5.32041925 2.42675465 7.375 6.125 C7.99695931 9.85675586 7.62919769 11.61660462 5.9375 15 C2.675984 17.70467181 0.64544173 17.80125161 -3.49609375 17.53515625 C-5.625 17.125 -5.625 17.125 -8.1875 15.625 C-10.20464187 12.11692717 -10.62807438 8.99947049 -9.625 5.125 C-6.50390461 1.39491039 -4.89475778 0.16878475 0 0 Z " fill="#031B4F" transform="translate(858.625,626.875)"/>
<path d="M0 0 C4.0318506 1.3439502 5.32041925 2.42675465 7.375 6.125 C7.99695931 9.85675586 7.62919769 11.61660462 5.9375 15 C2.68514819 17.69707223 0.64174534 17.85769288 -3.49609375 17.60546875 C-5.625 17.125 -5.625 17.125 -8.1875 15.0625 C-10.01660679 11.32476004 -10.35897997 9.23528784 -9.625 5.125 C-6.49148819 1.45649837 -4.86447322 0.16774046 0 0 Z " fill="#031B4F" transform="translate(858.625,584.875)"/>
<path d="M0 0 C16.5 0 33 0 50 0 C50 4.62 50 9.24 50 14 C33.5 14 17 14 0 14 C0 9.38 0 4.76 0 0 Z M1 2 C1 5.3 1 8.6 1 12 C16.51 12 32.02 12 48 12 C48 8.7 48 5.4 48 2 C32.49 2 16.98 2 1 2 Z " fill="#041043" transform="translate(391,137)"/>
<path d="M0 0 C2.4375 1.625 2.4375 1.625 4 4 C4.72125695 8.40768137 4.52001338 10.25937488 1.9375 13.9375 C-1 16 -1 16 -4.5 16.6875 C-8 16 -8 16 -11 13.4375 C-13 10 -13 10 -13.125 6.375 C-10.80869361 -0.57391916 -6.85196698 -1.99329948 0 0 Z " fill="#E5361C" transform="translate(1381,751)"/>
<path d="M0 0 C16.5 0 33 0 50 0 C50 4.62 50 9.24 50 14 C33.5 14 17 14 0 14 C0 9.38 0 4.76 0 0 Z M1 2 C1 5.63 1 9.26 1 13 C16.51 13 32.02 13 48 13 C48 9.37 48 5.74 48 2 C32.49 2 16.98 2 1 2 Z " fill="#0C1740" transform="translate(580,756)"/>
<path d="M0 0 C4.06985428 0.52199152 6.08194723 1.56054574 9.03125 4.38671875 C9.75957031 5.07830078 10.48789063 5.76988281 11.23828125 6.48242188 C11.98464844 7.21009766 12.73101563 7.93777344 13.5 8.6875 C14.24636719 9.39583984 14.99273438 10.10417969 15.76171875 10.83398438 C19.79263347 14.69724158 23.52893819 18.62673761 27 23 C26 24 26 24 23.41015625 24.515625 C18.22359699 23.73140298 15.89405836 20.5012499 12.4375 16.75 C11.14677346 15.38849584 9.85385473 14.02906606 8.55859375 12.671875 C7.64895874 11.70846191 7.64895874 11.70846191 6.72094727 10.72558594 C4.87875483 8.8089267 4.87875483 8.8089267 2.0546875 6.6875 C0 5 0 5 -0.3125 2.25 C-0.209375 1.5075 -0.10625 0.765 0 0 Z " fill="#FCDC84" transform="translate(1417,205)"/>
<path d="M0 0 C2.875 1 2.875 1 4.8125 2.625 C6.35600034 6.07517724 5.80833407 8.39999716 4.875 12 C1.17084707 14.46943529 -0.74644505 14.46913089 -5.125 14 C-7.73821414 11.80827201 -8.06609015 10.35345908 -8.625 7 C-8.125 4 -8.125 4 -6 1.5625 C-3.125 0 -3.125 0 0 0 Z " fill="#051C4F" transform="translate(247.125,631)"/>
<path d="M0 0 C4.39148352 1.52747253 4.39148352 1.52747253 5.875 4 C6.24028977 7.4093712 6.4890629 9.88023824 4.8125 12.9375 C1.78862524 14.5957539 -0.74886983 14.30144019 -4.125 14 C-7.125 12 -7.125 12 -8.125 8.6875 C-8.125 5 -8.125 5 -6.0625 2 C-3.125 0 -3.125 0 0 0 Z " fill="#061C4F" transform="translate(208.125,631)"/>
<path d="M0 0 C2.50041894 0.08168338 3.83455801 0.19140582 6.0625 1.375 C7.64683618 4.44465135 7.42498449 6.92931143 7.0625 10.3125 C6.0625 12.25 6.0625 12.25 4.0625 13.3125 C1.30249526 13.77250079 -1.18154774 13.81670748 -3.9375 13.3125 C-6 11.75 -6 11.75 -6.9375 9.3125 C-6.62815348 3.33180065 -6.4509419 0.51197952 0 0 Z " fill="#051C4E" transform="translate(169.9375,702.6875)"/>
<path d="M0 0 C2.32749345 3.49124017 2.50299316 4.89222251 2 9 C0.4375 11.4375 0.4375 11.4375 -2 13 C-5.81153499 13 -8.05097421 12.80074051 -11 10.3125 C-12.38906225 7.10029355 -12.05521374 5.3063364 -11 2 C-7.74497881 -1.88098681 -4.6330741 -1.20116736 0 0 Z " fill="#041A4F" transform="translate(212,668)"/>
<path d="M0 0 C1.875 1.1875 1.875 1.1875 3 3 C3.54068562 6.63031776 3.46379841 8.32214079 1.375 11.375 C-1.71186432 13.48706506 -3.3282913 13.61195145 -7 13 C-9.4375 11.4375 -9.4375 11.4375 -11 9 C-11 5.18846501 -10.80074051 2.94902579 -8.3125 0 C-5.12832007 -1.37694267 -3.29075199 -0.980224 0 0 Z " fill="#041A4E" transform="translate(174,632)"/>
<path d="M0 0 C1.9375 1.0625 1.9375 1.0625 3 3 C3.36248449 6.38318857 3.58433618 8.86784865 2 11.9375 C-1.24517189 13.66149757 -4.41991613 13.65498416 -8 13 C-10.0625 11.4375 -10.0625 11.4375 -11 9 C-10.875 5.375 -10.875 5.375 -10 2 C-6.30513897 -0.46324069 -4.36706908 -0.38991688 0 0 Z " fill="#061C4F" transform="translate(211,703)"/>
<path d="M0 0 C2.5 1.5625 2.5 1.5625 4 4 C3.78571429 10.21428571 3.78571429 10.21428571 1 13 C-5.96019496 13.55239643 -5.96019496 13.55239643 -9 11.9375 C-10.58433618 8.86784865 -10.36248449 6.38318857 -10 3 C-7.7773391 -1.05308751 -4.20075589 -0.5158823 0 0 Z " fill="#051B4D" transform="translate(249,703)"/>
<path d="M0 0 C3.4375 1 3.4375 1 5.4375 2.6875 C6.81444267 5.87167993 6.417724 7.70924801 5.4375 11 C4.25 12.875 4.25 12.875 2.4375 14 C-1.19281776 14.54068562 -2.88464079 14.46379841 -5.9375 12.375 C-8.04956506 9.28813568 -8.17445145 7.6717087 -7.5625 4 C-5.27647022 0.43379354 -4.27192374 0 0 0 Z " fill="#03194E" transform="translate(246.5625,667)"/>
<path d="M0 0 C2.375 1.625 2.375 1.625 4 4 C4.5625 7 4.5625 7 4 10 C1.875 12.4375 1.875 12.4375 -1 14 C-4.56090901 14 -6.25697245 13.69349238 -8.875 11.25 C-10.24863504 8.50272993 -10.53062116 7.03212094 -10 4 C-7.16979976 -0.02759265 -4.82432618 -0.80405436 0 0 Z " fill="#041A4E" transform="translate(173,667)"/>
<path d="M0 0 C0.99 0.33 1.98 0.66 3 1 C3.33 1.99 3.66 2.98 4 4 C4.55872803 4.0093457 5.11745605 4.01869141 5.69311523 4.02832031 C8.27540323 4.08268988 10.85600598 4.16619709 13.4375 4.25 C14.75524414 4.27126953 14.75524414 4.27126953 16.09960938 4.29296875 C30.24705615 4.81501476 39.59898335 13.17908683 49 23 C49.97669091 23.98163618 50.95558674 24.96108765 51.9375 25.9375 C52.618125 26.618125 53.29875 27.29875 54 28 C50.97532189 26.62818803 48.71113791 25.03464311 46.25 22.8125 C45.55390625 22.19375 44.8578125 21.575 44.140625 20.9375 C42.74677944 19.67591716 41.36088543 18.40547481 39.984375 17.125 C31.53464865 9.40713972 24.45337396 6.75430043 13 7.1875 C12.30132813 7.22552734 11.60265625 7.26355469 10.8828125 7.30273438 C7.2009015 7.3965189 5.17610053 7.10708197 2 5.17578125 C0 3 0 3 0 0 Z " fill="#0E143B" transform="translate(1304,358)"/>
<path d="M0 0 C3.15624686 1.38736126 5.19863433 3.00392708 7.5625 5.5 C9.67524223 7.72096733 11.41613626 9.27742417 14 11 C11.83203125 11.80859375 11.83203125 11.80859375 9 12 C6.32421875 9.91015625 6.32421875 9.91015625 3.6875 7.0625 C2.80449219 6.12535156 1.92148438 5.18820313 1.01171875 4.22265625 C0.34785156 3.48917969 -0.31601563 2.75570312 -1 2 C-0.67 1.34 -0.34 0.68 0 0 Z " fill="#FBC673" transform="translate(1430,217)"/>
<path d="M0 0 C0 0.99 0 1.98 0 3 C0.15260786 4.73046409 0.32048005 6.45962045 0.5 8.1875 C0.665 9.775625 0.83 11.36375 1 13 C4.3 13 7.6 13 11 13 C10.01 13.99 9.02 14.98 8 16 C4.04103269 16 2.28608768 15.21767541 -0.875 12.8125 C-3 10 -3 10 -3.5 6.9375 C-2.96248682 3.77961005 -2.14978703 2.32893595 0 0 Z " fill="#0F1843" transform="translate(936,587)"/>
<path d="M0 0 C0.45890625 0.40992188 0.9178125 0.81984375 1.390625 1.2421875 C2.00421875 1.78101563 2.6178125 2.31984375 3.25 2.875 C3.85328125 3.40867188 4.4565625 3.94234375 5.078125 4.4921875 C6.97418746 5.9797487 8.81290005 7.00322436 11 8 C10.34 9.32 9.68 10.64 9 12 C5.74266739 10.91422246 4.99980864 10.13042199 2.875 7.5625 C2.35679688 6.94503906 1.83859375 6.32757813 1.3046875 5.69140625 C0 4 0 4 -1 2 C-0.67 1.34 -0.34 0.68 0 0 Z " fill="#FCC872" transform="translate(1468,199)"/>
<path d="M0 0 C5.72996169 0.16433925 8.62475092 4.17726075 12.3125 8.0625 C12.95767578 8.72572266 13.60285156 9.38894531 14.26757812 10.07226562 C15.85447018 11.70617671 17.43126328 13.34868147 19 15 C16 15 16 15 13.1875 12.41015625 C12.11744936 11.30150926 11.05522392 10.18526845 10 9.0625 C6.08844225 4.70213671 6.08844225 4.70213671 1 2 C1.33 3.32 1.66 4.64 2 6 C1.01 5.34 0.02 4.68 -1 4 C-0.67 2.68 -0.34 1.36 0 0 Z " fill="#FDE68A" transform="translate(1442,175)"/>
<path d="M0 0 C0 3 0 3 -1 6 C-1.7425 6.433125 -2.485 6.86625 -3.25 7.3125 C-5.7734694 8.86099259 -6.81538156 9.85861416 -8.5625 12.125 C-11.03778995 15.04457276 -11.49743284 15.39278963 -15 16 C-10.30233025 10.33870569 -5.25276628 5.14771096 0 0 Z " fill="#182248" transform="translate(761,264)"/>
<path d="M0 0 C0.66 0.33 1.32 0.66 2 1 C0.50902342 4.7952131 -1.75700849 6.61042731 -5 9 C-5.66 8.34 -6.32 7.68 -7 7 C-4.69 4.69 -2.38 2.38 0 0 Z " fill="#001445" transform="translate(931,910)"/>
<path d="M0 0 C0.99 0.33 1.98 0.66 3 1 C2.38125 1.2475 1.7625 1.495 1.125 1.75 C-1.41292362 3.24289625 -1.7414688 4.40427941 -3 7 C-5.125 8.75 -5.125 8.75 -7 10 C-7.66 9.67 -8.32 9.34 -9 9 C-6.03 6.03 -3.06 3.06 0 0 Z " fill="#18254E" transform="translate(726,299)"/>
<path d="M0 0 C0.99 0 1.98 0 3 0 C3 5.28 3 10.56 3 16 C2.67 16 2.34 16 2 16 C1.67 13.03 1.34 10.06 1 7 C0.67 7 0.34 7 0 7 C0 4.69 0 2.38 0 0 Z " fill="#112A5F" transform="translate(1165,474)"/>
<path d="M0 0 C-3.08809695 1.76462683 -4.23312136 2 -8 2 C-8 2.66 -8 3.32 -8 4 C-9.65 4 -11.3 4 -13 4 C-13.33 3.34 -13.66 2.68 -14 2 C-9.15758367 0.66416101 -5.06562383 -0.25328119 0 0 Z " fill="#0B1540" transform="translate(1405,858)"/>
<path d="M0 0 C0.33 0 0.66 0 1 0 C1.125 6.75 1.125 6.75 0 9 C-0.66 9 -1.32 9 -2 9 C-2.66 10.32 -3.32 11.64 -4 13 C-3.27991594 8.39146203 -1.68704061 4.32762591 0 0 Z " fill="#06113C" transform="translate(1467,802)"/>
<path d="M0 0 C0.33 0.66 0.66 1.32 1 2 C0.401875 2.268125 -0.19625 2.53625 -0.8125 2.8125 C-3.04267613 3.88022403 -3.04267613 3.88022403 -4.5625 5.625 C-6 7 -6 7 -9 7 C-8 4 -8 4 -6.15234375 2.83203125 C-5.42144531 2.49558594 -4.69054688 2.15914062 -3.9375 1.8125 C-3.20402344 1.46832031 -2.47054688 1.12414062 -1.71484375 0.76953125 C-1.14894531 0.51558594 -0.58304688 0.26164063 0 0 Z " fill="#091541" transform="translate(1434,845)"/>
<path d="M0 0 C1.85625 -0.061875 1.85625 -0.061875 3.75 -0.125 C4.79414062 -0.15980469 4.79414062 -0.15980469 5.859375 -0.1953125 C8.30155975 0.02751458 9.88636771 0.79085 12 2 C10.54263913 2.19491452 9.08405407 2.38069358 7.625 2.5625 C6.81289062 2.66691406 6.00078125 2.77132812 5.1640625 2.87890625 C3 3 3 3 1 2 C0.67 1.34 0.34 0.68 0 0 Z " fill="#E0E2E6" transform="translate(1202,847)"/>
<path d="M0 0 C-1.625 2.0625 -1.625 2.0625 -4 4 C-7.25 3.75 -7.25 3.75 -10 3 C-6.84439813 -0.15560187 -4.30999015 -1.43666338 0 0 Z " fill="#10204F" transform="translate(148,760)"/>
<path d="M0 0 C2.31282587 3.46923881 2.42478586 4.92205575 2 9 C1.01 9.99 0.02 10.98 -1 12 C-0.67 8.04 -0.34 4.08 0 0 Z " fill="#EFF1F2" transform="translate(1207,541)"/>
<path d="M0 0 C-0.99 0 -1.98 0 -3 0 C-3 0.66 -3 1.32 -3 2 C-8.625 3.125 -8.625 3.125 -12 2 C-10.75579353 1.4654744 -9.50429064 0.94791389 -8.25 0.4375 C-7.55390625 0.14746094 -6.8578125 -0.14257812 -6.140625 -0.44140625 C-3.69987216 -1.07831803 -2.3596345 -0.80248831 0 0 Z " fill="#05103C" transform="translate(1421,854)"/>
<path d="M0 0 C0.99 0.33 1.98 0.66 3 1 C0.68055212 4.47917182 -1.26369964 5.29429766 -5 7 C-3.70700306 4.11562221 -2.34058637 2.12780579 0 0 Z " fill="#E32F1A" transform="translate(303,983)"/>
<path d="M0 0 C1.32 0.33 2.64 0.66 4 1 C1.60490662 3.89932357 -0.31245243 4.50168276 -4 5 C-2.68 3.35 -1.36 1.7 0 0 Z " fill="#1F3057" transform="translate(856,984)"/>
<path d="M0 0 C0.66 0.33 1.32 0.66 2 1 C0.35 2.98 -1.3 4.96 -3 7 C-3.66 6.34 -4.32 5.68 -5 5 C-3.35 3.35 -1.7 1.7 0 0 Z " fill="#E9EBEE" transform="translate(1094,861)"/>
<path d="M0 0 C1.0625 1.8125 1.0625 1.8125 2 4 C1.67 4.99 1.34 5.98 1 7 C-0.32 5.68 -1.64 4.36 -3 3 C-2.01 2.01 -1.02 1.02 0 0 Z " fill="#141C52" transform="translate(1400,118)"/>
<path d="M0 0 C0.33 0.99 0.66 1.98 1 3 C-1.97 5.475 -1.97 5.475 -5 8 C-5.66 7.67 -6.32 7.34 -7 7 C-4.69 4.69 -2.38 2.38 0 0 Z " fill="#020D37" transform="translate(831,1010)"/>
<path d="M0 0 C-0.33 2.64 -0.66 5.28 -1 8 C-1.66 8 -2.32 8 -3 8 C-3 5.69 -3 3.38 -3 1 C-1 0 -1 0 0 0 Z " fill="#0C2053" transform="translate(1221,1000)"/>
<path d="M0 0 C0.66 0.33 1.32 0.66 2 1 C0.35 2.98 -1.3 4.96 -3 7 C-3.66 6.67 -4.32 6.34 -5 6 C-3.63016497 2.83884224 -3.0109362 2.0072908 0 0 Z " fill="#E3301B" transform="translate(460,827)"/>
<path d="M0 0 C0.33 0 0.66 0 1 0 C0.67 2.64 0.34 5.28 0 8 C-0.99 8 -1.98 8 -3 8 C-1.125 1.125 -1.125 1.125 0 0 Z " fill="#F4F4F4" transform="translate(1205,434)"/>
</svg>
