<svg
              width="35"
              height="35"
              viewBox="0 0 35 35"
              fill="none"
              xmlns="http://www.w3.org/2000/svg"
            >
              <path
                d="M1.45831 1.95825H7.29165L11.2 21.4853C11.3333 22.1567 11.6986 22.7599 12.2318 23.1891C12.765 23.6183 13.4322 23.8464 14.1166 23.8333H28.2916C28.976 23.8464 29.6433 23.6183 30.1765 23.1891C30.7097 22.7599 31.075 22.1567 31.2083 21.4853L33.5416 9.24992H8.74998M14.5833 31.1249C14.5833 31.9303 13.9304 32.5833 13.125 32.5833C12.3196 32.5833 11.6666 31.9303 11.6666 31.1249C11.6666 30.3195 12.3196 29.6666 13.125 29.6666C13.9304 29.6666 14.5833 30.3195 14.5833 31.1249ZM30.625 31.1249C30.625 31.9303 29.9721 32.5833 29.1666 32.5833C28.3612 32.5833 27.7083 31.9303 27.7083 31.1249C27.7083 30.3195 28.3612 29.6666 29.1666 29.6666C29.9721 29.6666 30.625 30.3195 30.625 31.1249Z"
                stroke="black"
                stroke-width="4"
                stroke-linecap="round"
                stroke-linejoin="round"
              />
            </svg>